<svg xmlns="http://www.w3.org/2000/svg" viewBox="0 0 17.12 18.15"><g id="Layer_2" data-name="Layer 2"><g id="Layer_1-2" data-name="Layer 1"><path id="Path_2-2" data-name="Path 2-2" d="M15.84,6.65,10.38,1.23A2.39,2.39,0,0,0,8.6.5a2.58,2.58,0,0,0-1.79.76L1.12,7a.43.43,0,0,0,0,.62l0,0,0,0a.44.44,0,0,0,.62,0l0,0L7.47,1.92a1.59,1.59,0,0,1,1.08-.48h0a1.67,1.67,0,0,1,1.1.45l5.49,5.42a1.64,1.64,0,0,1,.48,1.12v6.22a2,2,0,0,1-2,2H3.47a2.07,2.07,0,0,1-2.06-2.06V10.51A.46.46,0,0,0,1,10.05H1a.47.47,0,0,0-.46.46v4.14a3,3,0,0,0,3,3H13.65a3,3,0,0,0,3-3h0V8.43A2.6,2.6,0,0,0,15.84,6.65Z" fill="#444e5e" stroke="#444e5e"/></g></g></svg>