<svg xmlns="http://www.w3.org/2000/svg" viewBox="0 0 18.83 18.61"><g id="Layer_2" data-name="Layer 2"><g id="Layer_1-2" data-name="Layer 1"><path id="Union_1-2" data-name="Union 1-2" d="M17.14,17.78c0-2.66-2.7-4.81-6-4.81H7.7c-3.33,0-6,2.15-6,4.81a.83.83,0,0,1-.83.83A.83.83,0,0,1,0,17.78c0-3.58,3.45-6.49,7.7-6.49h3.43c4.24,0,7.7,2.91,7.7,6.49a.84.84,0,0,1-.84.83.83.83,0,0,1-.83-.83ZM4.39,5a5,5,0,1,1,5,5h0a5,5,0,0,1-5-5ZM6.06,5A3.35,3.35,0,1,0,9.41,1.67,3.35,3.35,0,0,0,6.06,5Z" fill="#444e5e"/></g></g></svg>